Inverse Dynamics Generalized Forces
version=1
nRows=13
nColumns=34
inDegrees=no
endheader 
time	pelvis_tilt_moment	pelvis_list_moment	pelvis_rotation_moment	pelvis_tx_force	pelvis_ty_force	pelvis_tz_force	hip_flexion_l_moment	hip_adduction_l_moment	hip_rotation_l_moment	hip_flexion_r_moment	hip_adduction_r_moment	hip_rotation_r_moment	knee_angle_l_moment	knee_angle_r_moment	ankle_angle_l_moment	ankle_angle_r_moment	subtalar_angle_l_moment	subtalar_angle_r_moment	mtp_angle_l_moment	mtp_angle_r_moment	lumbar_extension_moment	lumbar_bending_moment	lumbar_rotation_moment	arm_flex_l_moment	arm_add_l_moment	arm_rot_l_moment	arm_flex_r_moment	arm_add_r_moment	arm_rot_r_moment	elbow_flex_l_moment	elbow_flex_r_moment	pro_sup_l_moment	pro_sup_r_moment	
          7.32000000	         -0.00000000	         -0.00000000	         -0.00000000	         -0.00000000	         -0.00000000	          0.00000000	         21.81666804	          2.87454856	         -5.04203117	          6.28000017	          7.25850842	         -3.67991904	        -15.72476883	        -10.95782338	         -0.00442426	          1.15971339	          0.35293711	         -0.16734417	          0.04191714	         -0.10401896	        -25.73535015	          2.61527324	          3.15602482	          4.48990145	        -30.58006222	         -4.65554020	         -6.02416481	        -14.01691208	         -8.12438125	         -8.00681799	        -57.65666831	         -0.05192492	          1.98006657	
          7.33000000	          0.00000000	          0.00000000	          0.00000000	         -0.00000000	         -0.00000000	         -0.00000000	         28.79237975	         15.59767348	         -5.09386101	         35.95522230	         10.36983036	          0.57723243	        -15.83500782	        -10.84428033	          0.08822065	          2.48856533	          0.72480690	         -0.83929595	         -0.00056241	         -0.17581740	        -93.88784371	         31.09398322	         -5.90307493	        -29.19963739	        -60.28706457	          9.40163072	        -42.01934970	        -47.82258786	         34.01534362	        -14.62292102	         -4.87538045	          0.44797051	         -8.24287100	
          7.34000000	         -0.00000000	         -0.00000000	         -0.00000000	         -0.00000000	          0.00000000	          0.00000000	         33.70106811	         12.96668647	         -4.49738952	         49.34559850	         10.72183651	          2.09673745	        -16.29139997	         -9.74154832	          0.36106938	          2.62868755	          0.29960165	         -0.97055128	          0.01657348	         -0.15485050	       -107.81840609	         38.81141713	        -18.59017220	          0.18887565	        -82.50575117	          1.40719890	        -69.10367341	        -18.60625564	         57.01462796	        -14.16881848	         34.05909280	          0.31740903	         -6.15913623	
          7.35000000	         -0.00000000	          0.00000000	         -0.00000000	          0.00000000	          0.00000000	         -0.00000000	         54.62779811	         45.80711557	         -2.94798983	         46.71192354	          2.90968736	          1.27970237	        -16.93649800	         -7.71824035	          1.58789762	          3.36457272	         -0.25415391	         -1.28070815	         -0.06934356	         -0.21591126	       -113.71854203	        103.72026050	         11.62741186	         32.55158833	        -33.49958179	        -11.37148150	        -88.63533690	         23.54146756	         -7.12119800	          4.92999940	         62.78373707	         -0.54889258	          2.73485949	
          7.36000000	          0.00000000	          0.00000000	         -0.00000000	          0.00000000	         -0.00000000	         -0.00000000	         59.95723242	         54.87232273	         -3.64442088	         43.26763887	         -2.69687816	          0.84378204	        -13.04460229	        -10.13011273	          2.06953276	          4.18511214	         -0.65022234	         -1.40132069	         -0.08513410	         -0.30149761	        -96.43476823	        124.98108328	         18.34607915	         62.34517881	         12.63741008	        -23.64063492	       -103.26553820	         24.59213185	        -40.75476730	         15.09112277	         87.82701631	         -1.08593760	          4.93997323	
          7.37000000	          0.00000000	          0.00000000	          0.00000000	          0.00000000	         -0.00000000	          0.00000000	         48.10881559	         44.33633010	         -2.30807863	         13.05418871	          8.51191496	         -1.57505189	        -10.95303678	          5.04582326	          1.30127083	          2.71178822	         -0.10476933	         -0.45193991	         -0.09042433	         -0.26283811	        -63.51354211	         54.26370339	         25.94110783	         53.23888353	         46.83277659	        -22.19617568	        -83.74729914	        -20.33140551	         18.59852120	         17.23041830	        104.96286648	         -1.15146418	         -3.95126669	
          7.38000000	         -0.00000000	         -0.00000000	          0.00000000	         -0.00000000	         -0.00000000	         -0.00000000	         -0.89227783	         51.86459296	         -9.18210883	          6.44667313	         11.72633483	          0.14482965	          5.97370155	          6.34914663	         -0.24412601	          1.52785370	          0.84500905	          0.28853912	         -0.04859112	         -0.21316107	        -22.52436445	         43.65424041	         -2.63671599	          2.68367608	         -2.63026458	         -0.67783117	        -25.46021193	        -22.64179755	         51.01832971	        -12.39342154	        115.09916160	          0.22730091	         -1.16832438	
          7.39000000	         -0.00000000	         -0.00000000	          0.00000000	         -0.00000000	         -0.00000000	         -0.00000000	        -12.26641118	         42.44384178	         -7.93406435	        -15.06889088	         19.02170722	         -3.89071844	          8.15428654	          3.95695888	         -0.52592866	         -2.32498227	          1.01908300	          1.81352227	         -0.04785531	          0.06275346	          7.93895710	          6.66662497	          3.66380266	        -35.43756081	        -31.91045257	         15.17036104	         -1.21724717	         -8.65131622	         74.67241449	        -14.44923883	         46.45664324	          0.96417158	          1.42819857	
          7.40000000	          0.00000000	          0.00000000	         -0.00000000	          0.00000000	         -0.00000000	          0.00000000	         -3.10401439	         34.78069368	         -5.80022076	        -19.30623836	          5.58073490	         -5.11552645	          6.79074123	          2.11155230	          0.12844731	         -3.45845212	          0.52662574	          1.50218846	         -0.06631592	          0.22938345	          6.04702451	         28.17965772	         15.30213767	        -28.37019662	        -23.70110587	          7.96489176	        -38.37611329	         17.75801531	         24.37618030	         -3.66355372	          1.88277235	          0.32061532	          0.28959208	
          7.41000000	          0.00000000	          0.00000000	         -0.00000000	          0.00000000	          0.00000000	          0.00000000	          3.89715616	         22.64548097	         -4.71097816	        -10.98194557	          0.25965058	         -2.36317126	          5.97600539	          0.11087627	          0.25404047	         -1.71803704	          0.24301688	         -0.50730359	         -0.05047262	          0.20745373	         -0.71235476	         22.26751771	         15.90477595	        -26.75134580	        -28.54207225	          3.33657134	          0.89088519	        -14.02030182	        -19.84111962	         -5.72808668	         -7.79545378	          0.07486506	         -0.57751100	
          7.42000000	         -0.00000000	         -0.00000000	          0.00000000	         -0.00000000	          0.00000000	         -0.00000000	          3.73812188	         17.47889430	         -3.56205145	         -6.28837998	         -0.27611178	         -1.85720516	          3.64049932	          0.26970047	         -0.15952711	         -1.28319811	          0.43774012	         -0.08561690	         -0.02833524	          0.15500521	          1.03474548	          8.97117692	         26.96538435	         -2.43373015	         15.91064942	          0.42350965	         20.73596056	        -13.27095730	        -52.39810849	          8.26299229	        -15.34597591	         -0.29686430	         -0.93118633	
          7.43000000	         -0.00000000	         -0.00000000	          0.00000000	          0.00000000	          0.00000000	         -0.00000000	          9.82486786	          9.40017569	         -2.95161242	        -12.60861053	          1.18599247	         -0.43892920	         -0.06465365	          1.47172631	         -0.35980532	         -1.35853172	          0.48753050	          0.30178519	          0.00058589	          0.13202557	          2.76357940	        -11.61399257	         40.84387162	         28.26579689	         48.99130236	         -4.37133139	          4.78205890	          1.85063863	        -35.71508267	         21.80146262	        -31.10348400	         -0.87564035	          0.14408748	
          7.44000000	          0.00000000	          0.00000000	         -0.00000000	          0.00000000	          0.00000000	          0.00000000	         12.67354317	          3.83374276	         -2.18838943	        -32.75611424	          8.26986646	         -2.72045567	         -2.69537749	          3.78593084	         -0.61614368	         -3.08629299	          0.49742487	          0.72476363	          0.04457202	          0.24042841	         10.91086362	        -22.44571521	         46.25300338	          6.53567073	         48.02449677	          5.41790505	        -25.27469682	          2.65544235	         12.24681471	         18.86024462	        -19.44181037	         -0.42754819	          0.75315175	
